<svg xmlns="http://www.w3.org/2000/svg" xmlns:xlink="http://www.w3.org/1999/xlink" viewBox="0 0 844 828"><defs><style>.cls-1{fill:none;}.cls-2{clip-path:url(#clip-path);}.cls-3{fill:#c3c3c3;}.cls-4{fill:#fbed22;}.cls-5{fill:#a1a1a2;stroke:#231f20;stroke-miterlimit:10;stroke-width:0.75px;}.cls-6{fill:#2bb04d;}.cls-7{fill:#0a7731;}.cls-8{fill:#28b04c;}.cls-9{font-size:92.62px;fill:#231f20;font-family:FuturaStd-Bold, Futura Std;font-weight:700;}</style><clipPath id="clip-path"><circle class="cls-1" cx="422" cy="414" r="396.56"/></clipPath></defs><title>Logo diana</title><g id="Livello_2" data-name="Livello 2"><g class="cls-2"><circle class="cls-3" cx="418.52" cy="412.73" r="396.56"/><path class="cls-4" d="M815.07,412.73H22c0,219,177.55,396.56,396.56,396.56S815.07,631.74,815.07,412.73Z"/><rect class="cls-5" x="180.92" y="274.6" width="160.93" height="285.77"/><rect class="cls-5" x="502.78" y="238.5" width="160.93" height="321.86"/><rect class="cls-5" x="663.71" y="328.35" width="160.93" height="232.01"/><rect class="cls-5" x="19.99" y="328.35" width="160.93" height="232.01"/><rect class="cls-5" x="341.85" y="163.3" width="160.93" height="397.06"/><path class="cls-6" d="M432,525.29c-15.65-62.69,37.89-186.92,185.24-203.76-23.58,11.79-56.42,109.46-78.31,142.3S485.88,546.34,432,525.29Z"/><path class="cls-7" d="M546.12,370.88c-11.18,5.06-21.2,12.36-30.29,20.53A217.45,217.45,0,0,0,491,418.36c-15.16,19.24-28,40.25-39.05,62.07A356.41,356.41,0,0,0,437,514c-1.08,2.86-2.12,5.73-3.07,8.62s-1.77,5.83-2.59,8.76c-1.54,5.9-2.79,11.88-3.93,17.88-2.28,12-4,24.15-5.51,36.31q-1.11,9.12-2,18.27c-.58,6.1-1.12,12.21-1.3,18.33a.1.1,0,0,1-.1.1.09.09,0,0,1-.1-.1c-.06-6.14.24-12.27.58-18.4s.92-12.24,1.51-18.35c1.22-12.22,2.82-24.4,4.93-36.52,1.13-6,2.36-12.08,3.9-18.05a169.43,169.43,0,0,1,5.84-17.55,359.48,359.48,0,0,1,15.31-33.54,373.38,373.38,0,0,1,39.68-62A220,220,0,0,1,515.44,391c9.21-8.1,19.34-15.31,30.6-20.26a.1.1,0,1,1,.08.18Z"/><path class="cls-8" d="M401.14,497.23c20.19-80.88-48.87-241.11-238.93-262.83,30.41,15.21,72.77,141.19,101,183.54S331.63,524.38,401.14,497.23Z"/><path class="cls-7" d="M254,297.84c14.51,6.41,27.57,15.72,39.43,26.18A283.68,283.68,0,0,1,326,358.59a428.31,428.31,0,0,1,27.51,38.71q12.72,20.07,23.58,41.23a464.06,464.06,0,0,1,19.69,43.26,214.75,214.75,0,0,1,7.47,22.63c2,7.68,3.63,15.45,5.07,23.25,2.77,15.6,4.84,31.31,6.45,47.06s2.87,31.55,2.87,47.39a.1.1,0,0,1-.1.1.09.09,0,0,1-.1-.1c-.19-7.9-.86-15.78-1.58-23.65s-1.55-15.74-2.49-23.58c-1.89-15.69-4.1-31.35-7-46.86-1.43-7.76-3-15.49-5-23.11a217.57,217.57,0,0,0-7.37-22.42,459.85,459.85,0,0,0-19.27-43.24Q364.95,418.13,352.4,398a428.94,428.94,0,0,0-27.2-38.78,281.12,281.12,0,0,0-32.15-34.73c-11.74-10.53-24.68-19.93-39.11-26.44a.1.1,0,0,1-.05-.13A.1.1,0,0,1,254,297.84Z"/><text class="cls-9" transform="translate(254.58 723.02)">DIANA</text></g></g></svg>